<svg width="60" height="60" viewBox="0 0 60 60" fill="none" xmlns="http://www.w3.org/2000/svg">
<path d="M59.8401 41.6048C57.7285 35.3572 58.7333 29.3037 58.8102 28.8652C59.1668 27.2809 59.3448 25.6499 59.3389 24.0166C59.3055 14.5757 53.2676 6.32172 44.3146 3.47809C43.8527 3.33161 43.3579 3.58704 43.2105 4.04938C43.0636 4.51218 43.3194 5.00611 43.7822 5.15351C52.005 7.76505 57.5504 15.3484 57.5811 24.023C57.5866 25.5308 57.4218 27.036 57.0913 28.4976C57.0885 28.5104 57.0858 28.5233 57.0835 28.5361C57.0336 28.813 55.8855 35.3943 58.1752 42.1678C58.3153 42.583 58.2352 43.016 57.9546 43.3557C57.6731 43.6967 57.2432 43.8652 56.8047 43.8048C54.9489 43.5521 53.3445 43.0669 52.0353 42.3628C50.1584 41.3534 47.93 41.266 46.0733 42.1289C43.33 43.4042 40.3934 44.0236 37.3383 43.9682C32.1619 43.8753 27.2867 41.7828 23.6104 38.0763C19.9346 34.3703 17.8811 29.4777 17.8289 24.3004C17.7758 19.0173 19.7735 14.0236 23.4539 10.2388C27.127 6.46179 32.0475 4.32541 37.309 4.22241C38.3403 4.20227 39.3767 4.26041 40.3888 4.39545C40.869 4.46045 41.3117 4.12125 41.3758 3.64014C41.4399 3.15903 41.1016 2.71683 40.6205 2.65274C39.5205 2.50626 38.3948 2.44355 37.2747 2.46506C31.5476 2.57675 26.1918 4.90219 22.1937 9.01337C20.5475 10.7062 19.2113 12.6215 18.2111 14.6896C13.352 15.6084 8.92309 18.1947 5.73294 21.98C2.48053 25.8394 0.679229 30.77 0.660919 35.8644C0.654968 37.4977 0.833038 39.1292 1.18964 40.7135C1.267 41.152 2.27225 47.2023 0.159668 53.4526C-0.174957 54.4423 0.0232543 55.5153 0.689758 56.3223C1.3613 57.1362 2.38669 57.5372 3.43268 57.3944C5.49765 57.1129 7.30261 56.5626 8.79721 55.7588C10.1888 55.0099 11.8294 54.9399 13.1858 55.5707C16.0509 56.9028 19.6618 57.5734 22.6931 57.5734C26.1057 57.5734 29.4959 56.624 32.4993 55.0053C35.4061 53.4389 37.9618 51.1876 39.8908 48.495C40.1737 48.1004 40.0831 47.5511 39.6885 47.2687C39.2939 46.9858 38.7446 47.0769 38.4621 47.471C36.6878 49.9475 34.3377 52.0175 31.6652 53.4576C28.9077 54.9444 25.794 55.7597 22.6619 55.816C19.61 55.871 16.6698 55.2521 13.9269 53.9767C12.0707 53.1134 9.84182 53.2013 7.96499 54.2107C6.65625 54.9147 5.05133 55.3999 3.1951 55.6526C2.75702 55.7126 2.32718 55.5446 2.0452 55.2035C1.76504 54.8639 1.68448 54.4308 1.82501 54.0156C4.10879 47.2591 2.97354 40.6998 2.91678 40.3857C2.91449 40.3725 2.91174 40.3587 2.909 40.3455C2.57849 38.8838 2.4137 37.3782 2.41873 35.8704C2.43567 31.1879 4.09003 26.6569 7.07693 23.1125C9.75027 19.9406 13.3703 17.6848 17.3734 16.6731C16.4922 19.0897 16.0445 21.6701 16.0711 24.3182C16.1283 29.9556 18.3626 35.2812 22.3626 39.3141C26.363 43.347 31.6694 45.7255 37.3067 45.7255C40.7995 45.7255 43.9489 45.0549 46.8145 43.7228C48.1708 43.092 49.8114 43.1625 51.2026 43.9105C52.6976 44.7148 54.5026 45.265 56.5676 45.5466C57.6131 45.6885 58.6385 45.2879 59.3105 44.4745C59.9765 43.6674 60.1748 42.5944 59.8401 41.6048Z" fill="#F7562C"/>
<path d="M31.412 17.4797H28.6434C26.8371 17.4797 25.3672 18.9496 25.3672 20.7559V24.0674C25.3672 25.8742 26.8371 27.3441 28.6484 27.3441H28.6489C28.6741 27.3441 30.0538 27.3564 30.6864 28.6455C31.0087 29.3029 31.2165 30.0101 31.303 30.7471C31.4133 31.6883 31.9819 32.6683 33.4742 32.6683C34.2313 32.6683 34.9299 32.2756 35.3322 31.5958C36.5256 29.5771 37.6632 26.1342 36.3054 21.1936C35.7039 19.0068 33.6921 17.4797 31.412 17.4797ZM33.8189 30.7009C33.6797 30.9357 33.46 30.9178 33.3721 30.8991C33.2641 30.8762 33.0787 30.7993 33.0485 30.542C32.9386 29.6068 32.6749 28.7082 32.2643 27.871C31.1616 25.6233 28.7945 25.5858 28.6475 25.5858C28.6461 25.5858 28.6448 25.5858 28.6434 25.5858C27.8062 25.5858 27.125 24.9047 27.125 24.0674V20.7559C27.125 19.9187 27.8062 19.2375 28.6434 19.2375H31.412C32.9029 19.2375 34.2185 20.2332 34.6103 21.6591C35.5694 25.1486 35.3029 28.1909 33.8189 30.7009Z" fill="#F7562C"/>
<path d="M38.4824 20.7559V24.0674C38.4824 25.8742 39.9523 27.3441 41.7563 27.3441C41.814 27.3445 43.1791 27.3761 43.8016 28.6455C44.1244 29.3029 44.3317 30.0101 44.4182 30.7471C44.5286 31.6883 45.1786 32.6683 46.5894 32.6683C47.347 32.6683 48.0456 32.2756 48.4479 31.5958C49.6413 29.5775 50.7789 26.1342 49.4207 21.1936C48.8196 19.0073 46.8078 17.4797 44.5276 17.4797H41.7591C39.9523 17.4797 38.4824 18.9496 38.4824 20.7559ZM40.2402 20.7559C40.2402 19.9187 40.9218 19.2375 41.7591 19.2375H44.5276C46.0186 19.2375 47.3337 20.2332 47.7256 21.6596C48.6846 25.1486 48.4186 28.1909 46.9346 30.7009C46.7954 30.9357 46.5752 30.9178 46.4873 30.8991C46.3798 30.8762 46.1944 30.7993 46.1642 30.542C46.0543 29.6068 45.7906 28.7078 45.38 27.871C44.2768 25.6233 41.9097 25.5858 41.7632 25.5858C41.7614 25.5858 41.76 25.5858 41.7591 25.5858C40.9214 25.5858 40.2402 24.9047 40.2402 24.0674V20.7559Z" fill="#F7562C"/>
</svg>
